<?xml version="1.0" encoding="utf-8"?>
<!-- Generator: Adobe Illustrator 19.0.0, SVG Export Plug-In . SVG Version: 6.00 Build 0)  -->
<svg version="1.1" id="Cup" xmlns="http://www.w3.org/2000/svg" xmlns:xlink="http://www.w3.org/1999/xlink" x="0px" y="0px"
	 viewBox="0 0 283 229" style="enable-background:new 0 0 283 229;" xml:space="preserve">
<style type="text/css">
	.st0{fill:#927C67;}
	.st1{fill:#99A927;}
	.st2{fill:#ECE6E1;}
	.st3{fill:#F1EDE9;}
	.st4{fill:#C7BAAD;}
</style>
<path id="XMLID_303_" class="st0" d="M28.7,80c-1.3,0.9-3.4,2.8-4.9,4.5c-4.9,5.6-4.9,12,0.2,17.5c7,7.5,16.2,11,25.5,14
	c20.3,6.5,41.2,9.2,62.3,10.2c32.1,1.6,63.9-0.4,95-9.3c7.9-2.2,15.5-5.2,22.3-9.8c2.2-1.5,4.3-3.2,6.1-5.1
	c5.6-6.1,5.4-12.6-0.4-18.5c-1.1-1.2-8-5.8-9.3-6.9c23.4,7.1,29.6,21.1,21.9,30.9c-1.8,2.7-0.9,11.3-2.2,19.1c3.3-3.1,5.6-5.3,8-7.5
	c3.5-3.1,7.2-5.9,11.6-7.6c6.5-2.6,9.8-1.1,11.7,5.6c2.4,8.5,1.3,16.9-1.3,25.1c-7.7,24.7-25.2,40.6-47.9,51.4
	c-3.8,1.8-11,5.9-18.2,6.8c9.8-6.2,23.5-14.4,31.5-21.4c8.6-7.5,16.6-15.4,21.6-25.9c2.5-5.2,3.8-10.6,3.4-16.4
	c-0.5-8.2-5.6-10.9-12.6-6.5c-6.8,4.3-11.6,10.3-14.5,17.9c-8.9,23.5-22.9,43.1-44.4,56.9c-12.3,7.9-28,12.8-32.3,13.7
	c-4.3,1-13.6,3.6-22.3,4.1c8.4-2.9,26.4-8.5,33.6-12.3c34.7-18.4,55.8-48.2,59.5-92.6c-14.4,6.5-28.5,10.8-43.1,13.3
	c-28.9,5-57.9,5.8-87.1,3.9c-20.5-1.3-40.7-4.3-60.3-10.4c-8-2.5-15.7-5.5-22.7-10.3c-2.5-1.7-4.8-3.6-6.8-5.8
	c-5.4-5.7-5.7-11.9-1-18.1c4.2-5.6,14.6-11.1,16.1-11.7s6-2.9,6.1-2.7C34.1,76.2,30.1,79.1,28.7,80z"/>
<path id="XMLID_295_" class="st1" d="M211.2,143.9c0.3,3.6-5.4,17-8.9,23.8c-7.7,14.7-18.3,27-34.3,35.3c-15,7.8-30.8,8.1-48.5,3.7
	c11.2-3.1,20.9-5.9,30.2-9.8c12.7-5.2,24.9-11.2,34.4-21.5c2-2.2,5.7-7,5.6-9c-0.4,0.1-9.6,5.9-13.9,8.3
	c-14.6,8.2-29.6,15.7-45.3,21.5c-20.5,7.5-41.4,9.8-62.2,0.7c-16.7-7.3-28.2-20.3-37.2-35.7c-5.4-9.2-13-25.5-16.5-38.6
	c2,2.9,8.6,15,10.5,18.3s5.9,9.5,11.6,16.1c7.1,8.3,15.4,15.6,25,21.6c12.9,8,27,11.9,42,13.1c1.5,0.1,4.3,0.1,4.5,0
	c0,0,0.2-1.9,0.4-3.2c1.3-9,7.3-14.2,15.1-17.9c10.8-5.1,22.6-5.2,34.1-6.6c12.7-1.5,24.9-4,36.3-9
	C200,152.2,210.2,144.7,211.2,143.9z"/>
<path id="XMLID_294_" class="st2" d="M185.1,83.8c1.4,0.5,8.8,3.8,10.1,4.5c8.8,4.7,9.2,11.7,0.8,17c-8.7,5.5-18.7,7.5-28.6,9.4
	c-43.1,6.8-80.7-0.6-92.7-5.7c-9.1-3.8-12.7-7.1-12.1-12.9c0.4-4.5,10-10.8,16-11.9c0,0-7,5.4-7.5,8.1c-0.5,2.7,3.5,18.4,57.1,18
	c59.4-0.5,63.5-11.8,64.6-16.3C193.7,89.4,185.1,83.8,185.1,83.8z"/>
<path id="XMLID_1_" class="st3" d="M60.2,83.7c-3.3,1.3-6.2,3.3-8.8,5.5C46,93.4,46,99.3,51,104.1c0.8,0.8,7.4,5.7,7.4,5.7
	c-4.5-0.6-13.2-5.3-18.2-9.5c-8.3-7.1-6.6-13.2,0.2-18.3c8.4-6.3,18.2-9.6,28.2-11.9c19.2-4.4,38.8-6.7,61-6.4s52.4,2.8,73.8,9.2
	c5.6,1.7,10.9,4.1,15.8,7.2c10.2,6.3,10.3,15.5,0.3,22.2c-2.7,1.8-13.4,6.2-16.1,7.6c16.2-10.6,12-19.1,2.9-23.8
	C196,80.5,163,72,132,72.7C101.1,73.4,81.3,75.4,60.2,83.7z"/>
<path id="XMLID_291_" class="st4" d="M129.4,58.8c3.2-6.2,12.7-16.6,13.6-31.5c3.6,2.7,6.2,22.9-4.4,33.5s-10.8,21.1-9.1,32.7
	C121.1,80,126.2,65,129.4,58.8z"/>
<path id="XMLID_289_" class="st4" d="M134.6,8.5c-1.1,7,2.2,12.6,3.5,18.2c1.9,8.2-4.1,20.6-12.5,25.6c1-2,4.3-8.4,4.9-9.8
	c2.6-6.2,2.2-10-1.1-16.4C126.6,20.8,128.6,14.1,134.6,8.5z"/>
<path id="XMLID_258_" class="st3" d="M53,106.7c0.4,0.1,0.9,0.2,1.3,0.4c-0.1,0.1-0.2,0.3-0.2,0.4C53.7,107.2,53.4,106.9,53,106.7
	L53,106.7z"/>
<path id="XMLID_257_" class="st2" d="M191,86.7c-0.4-0.1-0.9-0.3-1.3-0.4c0.1-0.1,0.2-0.3,0.3-0.4C190.3,86.2,190.7,86.4,191,86.7
	L191,86.7z"/>
<path id="XMLID_255_" class="st1" d="M211,144.7c0.1-0.1,0.1-0.3,0.3-0.4c0,0,0.2,0,0.3,0C211.3,144.4,211.1,144.5,211,144.7
	C210.9,144.6,211,144.7,211,144.7z"/>
</svg>
