<?xml version="1.0" encoding="utf-8"?>
<!-- Generator: Adobe Illustrator 19.0.0, SVG Export Plug-In . SVG Version: 6.00 Build 0)  -->
<svg version="1.1" id="Cup" xmlns="http://www.w3.org/2000/svg" xmlns:xlink="http://www.w3.org/1999/xlink" x="0px" y="0px"
	 viewBox="0 0 196.5 87" style="enable-background:new 0 0 196.5 87;" xml:space="preserve">
<style type="text/css">
	.st0{fill:#99A927;}
</style>
<path id="XMLID_295_" class="st0" d="M2.2,65.1c-0.3-3.5,5.2-16.6,8.7-23.2c7.5-14.3,17.9-26.4,33.5-34.5
	c14.7-7.6,30.2-7.9,47.4-3.6c-10.9,3-20.4,5.8-29.6,9.6c-12.4,5.1-24.3,11-33.7,21c-2,2.1-5.5,6.8-5.5,8.8c0.3-0.1,9.4-5.8,13.5-8.1
	C50.9,27,65.6,19.7,81,14.1c20.1-7.3,40.5-9.6,60.8-0.7c16.4,7.2,27.5,19.8,36.3,34.9c5.2,9,12.7,24.9,16.1,37.8
	c-1.9-2.8-8.4-14.7-10.3-17.9c-1.9-3.2-5.8-9.3-11.3-15.7c-7-8.1-15-15.3-24.5-21.1c-12.6-7.8-26.4-11.7-41-12.8
	c-1.5-0.1-4.2-0.1-4.4,0c0,0-0.2,1.9-0.4,3.2c-1.2,8.8-7.2,13.9-14.7,17.5c-10.6,5-22.1,5.1-33.3,6.4C42.1,47,30,49.5,18.9,54.4
	C13.2,57,3.2,64.3,2.2,65.1z"/>
<path id="XMLID_255_" class="st0" d="M196.3,22.3c0.1-0.1,0.1-0.3,0.3-0.4c0,0,0.2,0,0.3,0C196.6,22,196.4,22.1,196.3,22.3
	C196.2,22.2,196.3,22.3,196.3,22.3z"/>
</svg>
