<svg xmlns="http://www.w3.org/2000/svg" viewBox="0 0 858 269"><style>.st0{fill:#927c67}.st1{fill:#99a927}.st2{fill:#ece6e1}.st3{fill:#f1ede9}.st4{fill:#c7baad}.st5{fill:#5a5651}</style><g id="Cup"><path id="XMLID_303_" class="st0" d="M28.7 80c-1.3.9-3.4 2.8-4.9 4.5-4.9 5.6-4.9 12 .2 17.5 7 7.5 16.2 11 25.5 14 20.3 6.5 41.2 9.2 62.3 10.2 32.1 1.6 63.9-.4 95-9.3 7.9-2.2 15.5-5.2 22.3-9.8 2.2-1.5 4.3-3.2 6.1-5.1 5.6-6.1 5.4-12.6-.4-18.5-1.1-1.2-8-5.8-9.3-6.9 23.4 7.1 29.6 21.1 21.9 30.9-1.8 2.7-.9 11.3-2.2 19.1 3.3-3.1 5.6-5.3 8-7.5 3.5-3.1 7.2-5.9 11.6-7.6 6.5-2.6 9.8-1.1 11.7 5.6 2.4 8.5 1.3 16.9-1.3 25.1-7.7 24.7-25.2 40.6-47.9 51.4-3.8 1.8-11 5.9-18.2 6.8 9.8-6.2 23.5-14.4 31.5-21.4 8.6-7.5 16.6-15.4 21.6-25.9 2.5-5.2 3.8-10.6 3.4-16.4-.5-8.2-5.6-10.9-12.6-6.5-6.8 4.3-11.6 10.3-14.5 17.9-8.9 23.5-22.9 43.1-44.4 56.9-12.3 7.9-28 12.8-32.3 13.7-4.3 1-13.6 3.6-22.3 4.1 8.4-2.9 26.4-8.5 33.6-12.3 34.7-18.4 55.8-48.2 59.5-92.6-14.4 6.5-28.5 10.8-43.1 13.3-28.9 5-57.9 5.8-87.1 3.9-20.5-1.3-40.7-4.3-60.3-10.4-8-2.5-15.7-5.5-22.7-10.3-2.5-1.7-4.8-3.6-6.8-5.8-5.4-5.7-5.7-11.9-1-18.1 4.2-5.6 14.6-11.1 16.1-11.7s6-2.9 6.1-2.7c.3.1-3.7 3-5.1 3.9z"/><path id="XMLID_295_" class="st1" d="M211.2 143.9c.3 3.6-5.4 17-8.9 23.8-7.7 14.7-18.3 27-34.3 35.3-15 7.8-30.8 8.1-48.5 3.7 11.2-3.1 20.9-5.9 30.2-9.8 12.7-5.2 24.9-11.2 34.4-21.5 2-2.2 5.7-7 5.6-9-.4.1-9.6 5.9-13.9 8.3-14.6 8.2-29.6 15.7-45.3 21.5-20.5 7.5-41.4 9.8-62.2.7-16.7-7.3-28.2-20.3-37.2-35.7-5.4-9.2-13-25.5-16.5-38.6 2 2.9 8.6 15 10.5 18.3s5.9 9.5 11.6 16.1c7.1 8.3 15.4 15.6 25 21.6 12.9 8 27 11.9 42 13.1 1.5.1 4.3.1 4.5 0 0 0 .2-1.9.4-3.2 1.3-9 7.3-14.2 15.1-17.9 10.8-5.1 22.6-5.2 34.1-6.6 12.7-1.5 24.9-4 36.3-9 5.9-2.8 16.1-10.3 17.1-11.1z"/><path id="XMLID_294_" class="st2" d="M185.1 83.8c1.4.5 8.8 3.8 10.1 4.5 8.8 4.7 9.2 11.7.8 17-8.7 5.5-18.7 7.5-28.6 9.4-43.1 6.8-80.7-.6-92.7-5.7-9.1-3.8-12.7-7.1-12.1-12.9.4-4.5 10-10.8 16-11.9 0 0-7 5.4-7.5 8.1-.5 2.7 3.5 18.4 57.1 18 59.4-.5 63.5-11.8 64.6-16.3.9-4.6-7.7-10.2-7.7-10.2z"/><path id="XMLID_1_" class="st3" d="M60.2 83.7C56.9 85 54 87 51.4 89.2 46 93.4 46 99.3 51 104.1c.8.8 7.4 5.7 7.4 5.7-4.5-.6-13.2-5.3-18.2-9.5-8.3-7.1-6.6-13.2.2-18.3 8.4-6.3 18.2-9.6 28.2-11.9 19.2-4.4 38.8-6.7 61-6.4s52.4 2.8 73.8 9.2c5.6 1.7 10.9 4.1 15.8 7.2 10.2 6.3 10.3 15.5.3 22.2-2.7 1.8-13.4 6.2-16.1 7.6 16.2-10.6 12-19.1 2.9-23.8C196 80.5 163 72 132 72.7c-30.9.7-50.7 2.7-71.8 11z"/><path id="XMLID_291_" class="st4" d="M129.4 58.8c3.2-6.2 12.7-16.6 13.6-31.5 3.6 2.7 6.2 22.9-4.4 33.5s-10.8 21.1-9.1 32.7c-8.4-13.5-3.3-28.5-.1-34.7z"/><path id="XMLID_289_" class="st4" d="M134.6 8.5c-1.1 7 2.2 12.6 3.5 18.2 1.9 8.2-4.1 20.6-12.5 25.6 1-2 4.3-8.4 4.9-9.8 2.6-6.2 2.2-10-1.1-16.4-2.8-5.3-.8-12 5.2-17.6z"/><path id="XMLID_258_" class="st3" d="M53 106.7c.4.1.9.2 1.3.4-.1.1-.2.3-.2.4-.4-.3-.7-.6-1.1-.8z"/><path id="XMLID_257_" class="st2" d="M191 86.7c-.4-.1-.9-.3-1.3-.4.1-.1.2-.3.3-.4.3.3.7.5 1 .8z"/><path id="XMLID_255_" class="st1" d="M211 144.7c.1-.1.1-.3.3-.4h.3c-.3.1-.5.2-.6.4-.1-.1 0 0 0 0z"/></g><g id="Text"><g id="XMLID_2_"><path id="XMLID_5_" class="st5" d="M378.1 123.4H360V181c0 4 .2 7.3.5 9.8.3 2.5.9 4.5 1.8 6.1.9 1.6 2.1 2.6 3.6 3.1s3.4.8 5.7.8c1.8 0 3.9-.3 6.5-.9V220c-3.2.8-6 1.3-8.3 1.7-2.3.3-4.7.5-7.1.5-8.6 0-15-2.9-19.3-8.7-1.1-1.4-2-2.8-2.7-4.2-.7-1.4-1.2-3-1.6-4.7-.4-1.7-.7-3.8-.9-6.2-.2-2.4-.2-5.4-.2-9v-66h-13.3v-19.5H338V63h22v40.9h18.1v19.5z"/><path id="XMLID_7_" class="st5" d="M413.6 166.1v20.5c0 10.7 3.5 16.1 10.4 16.1 6.6 0 10-4.4 10.2-13.1v-5.9l.2-3.8h22.2v5.4c0 6.4-.4 11.3-1.2 14.6-.8 3.3-2.3 6.4-4.4 9.5-2.9 4.1-6.7 7.3-11.4 9.5s-9.7 3.3-15 3.3c-5.2 0-10.1-1.1-14.9-3.3-4.8-2.2-8.5-5.1-11.2-8.7-2.6-3.3-4.4-7-5.4-11.3-1-4.2-1.6-9.7-1.6-16.4v-40.6c0-6.9.5-12.4 1.6-16.5 1-4.1 2.8-7.9 5.2-11.1 2.7-3.6 6.4-6.5 11.1-8.7 4.7-2.2 9.6-3.3 14.7-3.3 5.2 0 10 1.1 14.5 3.2s8.2 5 11.1 8.8c2.4 3.3 4.1 7 5.2 11.1 1 4.1 1.6 9.7 1.6 16.5v24.2h-42.9zm21-28.3c0-5.6-.8-9.7-2.5-12.2-1.7-2.6-4.3-3.8-7.9-3.8-7.1 0-10.6 5.4-10.6 16v10.7h21v-10.7z"/><path id="XMLID_12_" class="st5" d="M519.7 220.5c-.3-1.4-.5-2.7-.6-3.7-.1-1-.2-2-.4-2.9-.2-.9-.3-1.8-.4-2.9-.1-1-.2-2.3-.4-3.9-8.7 10-17 15-25 15-5.9 0-10.7-2.5-14.2-7.5s-5.3-11.7-5.3-20.1c0-5 .6-9.5 1.9-13.5 1.3-4 3.6-7.8 6.9-11.6 3.3-3.7 7.8-7.5 13.5-11.4 5.7-3.8 12.9-8.2 21.8-13v-7.5c0-6.4-.6-10.6-1.8-12.8-1.2-2.1-3.6-3.2-7.1-3.2-3.4 0-5.8 1.2-7.4 3.6-1.5 2.4-2.5 6.5-2.8 12.3h-22.2c.8-11.3 4.2-20 10.2-26.2 6-6.2 14-9.3 24.2-9.3 5 0 9.5.9 13.5 2.6 4 1.7 7.1 4.2 9.4 7.5 2.4 3.1 4.1 6.5 4.9 10.2.8 3.7 1.2 9.4 1.2 17.2v38.5c0 6.7 0 12.2.1 16.3.1 4.1.2 7.7.2 10.6.1 2.9.3 5.4.6 7.6.3 2.2.7 4.8 1.2 7.7h-22zm-2.2-59.4c-7.8 4.8-13.3 9.5-16.6 13.9-3.3 4.4-4.9 9.6-4.9 15.5 0 3.7.7 6.7 2 8.9 1.4 2.2 3.1 3.3 5.4 3.3 5.1 0 9.8-3.6 14.1-10.7v-30.9z"/></g><g id="XMLID_3_"><path id="XMLID_19_" class="st5" d="M773.9 120.8c-5.4 0-9.6 1.6-12.8 4.7.2.9.3 1.7.4 2.3.1.6.1 1.4.1 2.2v27.4c0 5.6-.4 10.2-1.3 13.6-.9 3.4-2.4 6.7-4.6 9.6-5.2 6.9-12.7 10.3-22.5 10.3h-2.4c-.8 0-1.9-.1-3.3-.2-3.3 2.7-5 5.3-5 8 0 1.9.9 3.2 2.8 4.1 1.9.9 5.3 1.4 10.2 1.8 4.7.3 8.8.6 12.1.9 3.3.3 6.1.7 8.4 1.2 2.3.5 4.2 1.1 5.7 1.8s3 1.6 4.4 2.7c6 4.5 9 11.3 9 20.2 0 9.9-3.6 17.4-10.7 22.8-7.1 5.3-17.5 8-31 8-11.4 0-20.2-1.8-26.4-5.3-6.2-3.5-9.4-8.6-9.4-15.1 0-4.2 1.3-7.7 4-10.6 2.7-2.8 7.7-6 15.2-9.6-4.7-2-8.2-4.2-10.3-6.5-2.1-2.3-3.2-5.1-3.2-8.6 0-6.1 4.5-12.4 13.5-19-5.1-3.6-8.6-7.5-10.5-11.8-2-4.3-3-10.4-3-18.2v-21.6c0-22.4 10-33.6 29.9-33.6 5.5 0 10.2 1 14 3.1 3.8 2 7.3 5.4 10.4 10.1 4.1-7.8 9.6-12 16.4-12.4v17.7zm-44.8 102.7c-6 2.8-9 6.5-9 11 0 3.3 1.5 5.9 4.5 8 3 2 7 3 11.8 3 6 0 10.8-1.1 14.3-3.3 3.6-2.2 5.3-5.1 5.3-8.7 0-2.8-.9-4.9-2.6-6.2-1.7-1.3-4.8-2.2-9.2-2.7-.8-.2-2.2-.3-4.1-.5-1.9 0-5.6-.2-11-.6zm-6.4-65.4c0 5.2.7 8.9 2.3 11.3 1.5 2.3 4 3.5 7.5 3.5s6-1.2 7.5-3.5 2.3-6.1 2.3-11.3v-22.8c0-5.3-.8-9.2-2.3-11.5-1.5-2.3-4-3.5-7.5-3.5s-6 1.2-7.5 3.5-2.3 6.2-2.3 11.5v22.8z"/><path id="XMLID_27_" class="st5" d="M847.6 182.5c0 6.9-.5 12.4-1.5 16.5s-2.7 7.9-5.1 11.1c-2.7 3.6-6.2 6.5-10.7 8.7-4.4 2.2-9.2 3.3-14.2 3.3-5.1 0-9.8-1.1-14.2-3.3-4.4-2.2-8-5.1-10.7-8.7-2.4-3.3-4.1-7-5.1-11.1s-1.5-9.7-1.5-16.5v-40.6c0-6.9.5-12.4 1.5-16.5s2.7-7.9 5.1-11.1c2.7-3.6 6.2-6.5 10.7-8.7 4.4-2.2 9.2-3.3 14.2-3.3 5.1 0 9.8 1.1 14.2 3.3 4.4 2.2 8 5.1 10.7 8.7 2.4 3.3 4.1 7 5.1 11.1s1.5 9.7 1.5 16.5v40.6zm-41.4 4.1c0 5.6.8 9.7 2.3 12.2 1.5 2.6 4.1 3.8 7.6 3.8s6.1-1.3 7.6-3.8c1.5-2.6 2.3-6.6 2.3-12.2v-48.8c0-5.6-.8-9.7-2.3-12.2-1.5-2.6-4.1-3.8-7.6-3.8-3.6 0-6.1 1.3-7.6 3.8-1.5 2.6-2.3 6.7-2.3 12.2v48.8z"/></g><g id="XMLID_16_"><path id="XMLID_21_" class="st5" d="M658 243l-82.8-15.7 4.4-23c14.1-12.5 25.9-23.5 35.4-32.8 9.5-9.4 17.3-17.8 23.3-25.2 6-7.4 10.6-14.2 13.7-20.5 3.1-6.2 5.3-12.4 6.5-18.7 1.1-5.6.6-10.1-1.2-13.7-1.9-3.6-5.1-5.8-9.6-6.7-11-2.1-18 4.9-21 20.9-.1.7-.3 1.6-.5 2.7s-.4 2.4-.5 4l-26.4-5c.1-1.6.3-2.9.5-4.1.2-1.2.4-2.1.5-2.8 2.8-14.8 8.7-25.5 17.8-32 9.1-6.5 20.6-8.4 34.6-5.8 12.5 2.4 21.6 7.9 27.5 16.7 5.9 8.8 7.6 19.5 5.2 32.2-1.7 8.9-5.5 18.1-11.4 27.5-5.9 9.4-14.7 20.2-26.4 32.5-2.4 2.5-4.7 4.8-6.8 7-2.1 2.1-4.5 4.5-7.2 7.1-2.8 2.6-6.1 5.7-10.1 9.3-4 3.6-9.1 8.1-15.2 13.6l53.9 10.2L658 243z"/></g></g></svg>